<?xml version="1.0" encoding="UTF-8" standalone="no"?>
<!DOCTYPE svg PUBLIC "-//W3C//DTD SVG 1.1//EN" "http://www.w3.org/Graphics/SVG/1.1/DTD/svg11.dtd">
<svg width="100%" height="100%" viewBox="0 0 500 500" version="1.1" xmlns="http://www.w3.org/2000/svg" xmlns:xlink="http://www.w3.org/1999/xlink" xml:space="preserve" xmlns:serif="http://www.serif.com/" style="fill-rule:evenodd;clip-rule:evenodd;stroke-linejoin:round;stroke-miterlimit:2;">
    <g transform="matrix(1,0,0,1,-2787.5,-2663.86)">
        <g id="Altcha" transform="matrix(1,0,0,1,2787.5,2663.86)">
            <rect x="0" y="0" width="500" height="500" style="fill:none;"/>
            <clipPath id="_clip1">
                <rect x="0" y="0" width="500" height="500"/>
            </clipPath>
            <g clip-path="url(#_clip1)">
                <g transform="matrix(-0.764372,-9.36085e-17,9.36085e-17,-0.764372,999.455,501.753)">
                    <path d="M980.485,5.029C1169.75,5.029 1378.65,366.846 1284.01,530.757C1189.38,694.669 771.59,694.669 676.956,530.757C582.322,366.846 791.217,5.029 980.485,5.029Z" style="fill:rgb(29,29,201);"/>
                </g>
                <g transform="matrix(1.44253,0,0,1.44253,124.5,104.501)">
                    <path d="M17.838,79.515C15.87,97.697 21.04,116.622 33.747,131.737C58.501,161.183 102.481,165.023 131.981,140.316C147.379,127.419 155.788,109.293 156.789,90.723L173.755,96.887C171.312,118.242 160.984,138.738 143.186,153.644C106.311,184.529 51.335,179.728 20.393,142.921C3.454,122.771 -2.77,97.206 1.116,73.126C4.329,53.221 14.449,34.332 31.136,20.356C68.011,-10.53 122.987,-5.728 153.928,31.079C156.896,34.609 159.535,38.306 161.848,42.131C168.863,53.732 172.883,66.521 174,79.463L120.545,59.039L140.575,42.263C115.821,12.818 71.841,8.978 42.341,33.685C27.984,45.709 19.704,62.278 17.838,79.515ZM61.013,87C61.013,101.415 72.72,113.099 87.161,113.099C101.602,113.099 113.309,101.415 113.309,87L130.741,87C130.741,111.024 111.229,130.499 87.162,130.499C63.092,130.499 43.582,111.024 43.582,87L61.013,87Z" style="fill:white;"/>
                </g>
            </g>
        </g>
    </g>
</svg>
